<svg version="1.2" xmlns="http://www.w3.org/2000/svg" viewBox="0 0 2500 744" width="300" height="89">
	<style>
		.s0 { fill: #ffffff } 
		.s1 { fill: #000000 } 
	</style>
	<g>
		<path fill-rule="evenodd" class="s0" d="m0-870h2496.84v2496.84h-2496.84z"/>
		<path fill-rule="evenodd" class="s1" d="m157.8 290.05c0.89-114.29 101.69-178.18 202.48-190.79q5.72-0.67 11.44-1.18 5.73-0.5 11.47-0.84 5.74-0.34 11.49-0.5 5.75-0.17 11.5-0.17h192.59v27.9c84.6-47.71 187.19-47.71 272.69-0.89v-25.21h242.98c43.2 0 86.39 7.2 126 22.51v-22.51h242.98c32.41 0 65.7 4.51 97.2 12.6l-1.8-12.6h711.85c-13.51 120.59-27.9 241.19-41.41 360.88v215.98h-259.17v-145.79c-73.79 89.1-172.8 135-267.29 142.21-69.3 6.28-143.98-8.99-201.58-41.4v43.2h-217.77c-8.13 0-17.1-0.9-24.32-1.8-44.08-6.3-86.38-22.5-125.98-42.31v44.09h-281.67v-31.5c-103.5 53.99-240.29 42.31-323.99-36.9-45 39.61-99.9 58.51-162.89 65.7-18.01 1.8-36.91 3.58-55.8 3.58h-165.59v-272.68h24.3c-20.71-32.38-29.71-72.87-29.71-111.58z"/>
		<path fill-rule="evenodd" class="s0" d="m2224.97 458.34v191.69h-209.69v-197.09c-69.3 111.58-178.18 194.39-317.68 195.29h-24.28c-60.31 0-125.11-30.6-177.31-58.51v58.51h-191.7c-17.09 0-34.18-2.7-53.08-7.21-43.2-10.8-84.6-30.59-123.29-51.3v58.51h-232.19v-52.19c-44.09 35.09-99.88 55.8-160.19 56.69-72.9-0.89-138.6-30.59-186.3-80.1-0.89-0.89-0.89-1.8-1.8-2.69-13.5 16.19-30.59 29.68-49.49 40.49-45.9 26.1-105.29 38.69-169.2 38.69h-141.28v-222.28h53.99c-33.31-27.9-58.5-68.39-58.5-136.79 0-63 32.4-106.19 81-135 40.49-23.39 91.78-34.18 142.19-34.18h167.39v49.48c45-36 100.79-57.59 162-57.59 60.29 0 116.09 21.59 160.19 56.7v-45.9h218.68c56.7 0 108.9 12.59 151.19 35.11v-35.11h217.77c45.9 0 89.11 8.1 126.91 24.3l-3.62-24.3h238.5l5.39 54c1.8 15.29 7.21 32.39 16.22 50.39 3.59-16.19 5.39-33.29 7.19-50.39 0.9-18 0.9-35.99 0.9-54h387.87l-7.22 66.6z"/>
		<path fill-rule="evenodd" class="s1" d="m2368.96 566.32c2.69 0.9 6.3 1.8 8.98 2.7 6.31 2.7 11.72 6.3 15.31 10.8 4.51 3.6 8.1 9.01 10.8 15.31 0.9 2.69 1.8 5.39 1.8 8.99 0.9 3.61 1.81 6.31 1.81 9.91 0 6.28-1.81 13.5-4.51 18.9-1.8 6.28-5.39 11.69-9.9 16.19-4.51 5.4-9.9 9-16.19 11.7-6.3 2.7-12.59 3.6-19.81 3.6-9 0-17.09-1.79-25.19-6.3-7.2-4.49-12.59-9.89-17.1-17.1-2.71-3.61-4.51-8.09-5.39-12.6-0.92-3.6-1.8-8.11-1.8-12.6q0.01-3.33 0.48-6.61 0.47-3.29 1.38-6.49 0.91-3.19 2.25-6.23 1.34-3.04 3.08-5.87 1.61-2.89 3.57-5.55 1.95-2.66 4.23-5.05 2.28-2.39 4.85-4.47 2.56-2.09 5.37-3.83c8.1-4.49 16.19-6.29 25.19-6.29 3.59 0 7.18 0 10.79 0.89zm-11.71 9.02q-10.82 0-18.9 5.39c-6.29 4.5-10.8 8.99-13.51 15.31-2.68 6.28-4.48 12.6-4.48 18.9 0 3.58 0 7.2 0.88 9.9 0.91 3.59 1.8 6.29 3.59 8.99 2.71 5.39 5.42 8.99 9 12.61 4.51 2.69 8.1 4.49 11.71 6.29 4.49 0.9 8.1 1.8 11.69 1.8q10.82 0 18.9-5.4c6.29-3.59 10.8-8.09 13.51-14.39 1.8-2.71 3.59-6.29 4.51-8.99 0-3.6 0.88-7.21 0.88-10.8 0-5.4-0.88-9.91-2.71-14.41q-0.6-1.89-1.42-3.7-0.82-1.81-1.84-3.52-1.02-1.7-2.24-3.28-1.21-1.57-2.6-2.99c-2.7-3.6-7.19-6.3-11.68-8.1-4.48-2.72-9.9-3.61-15.29-3.61zm15.31 63.88l-6.29-8.09-7.22-11.7-5.38-5.39c6.29-3.6 9.89-7.2 9.89-9.91 0-1.81-0.9-3.6-2.71-4.51-2.68-0.89-5.38-1.8-9.89-1.8v28.81c0 1.8 0 3.59 0.91 6.3v5.39l-11.71-0.9v-48.59c6.29 0 10.8 0 14.39 0.89 4.5 0 7.21 0 9 0.9 8.1 0.9 11.71 5.4 11.71 10.79q0 4.07-2.71 8.11c-1.8 2.7-4.51 4.51-6.29 5.4 2.7 3.59 8.09 9.91 15.28 18.01zm-1636.99-465.27c112.48 0 203.38 93.6 203.38 207.88 0 116.09-90.9 209.69-203.38 209.69-111.6 0-202.49-93.6-202.49-209.69-0.01-114.28 90.88-207.88 202.49-207.88zm0 90c-45.9 0-83.71 53.09-83.71 117.9 0 66.59 37.8 119.69 83.71 119.69 46.8 0 84.6-53.11 84.6-119.69-0.02-64.81-37.8-117.9-84.6-117.9zm378.86-80.1c109.79 0 195.29 56.69 195.29 141.3 0 41.4-18.01 98.1-75.59 133.19 28.79 24.3 55.79 27.89 71.09 32.39l-0.91 97.21c-67.49 0-196.18-74.71-221.37-99.02v-90.89c80.99 0 110.7-17.1 110.7-65.69 0-32.4-19.81-62.99-74.71-62.99h-51.29v318.59h-110.69v-404.09zm210.59 0h158.4c108.89 0 196.19 56.69 196.19 141.3 0 41.4-18.01 99-76.5 133.19 28.8 25.19 56.7 27.89 71.09 32.39l-0.88 97.21c-68.41 0-197.09-74.71-221.4-99.02v-90.89c81.01 0 110.69-17.1 110.69-65.69 0-32.4-20.7-62.99-74.69-62.99h-52.19v318.59h-110.71zm750.55 320.37h88.2v85.48h-88.2zm-13.48-320.38h115.19l-32.41 299.68h-54.89zm-270.9 0c5.42 51.3 37.8 113.39 87.31 164.69 30.61-44.09 51.31-99.9 54.89-164.69h107.1c-9 83.69-35.09 174.59-83.69 248.38-58.48 90-141.29 155.7-263.69 155.7v-96.31c50.39-0.89 87.31-21.6 119.69-54.89-29.7-23.38-56.7-53.99-78.3-86.38-32.39-51.31-51.29-109.82-58.5-166.5zm-1547.9 106.19c0-75.59 80.98-108.9 162.89-108.9h107.09v91.8h-84.59c-39.6 0-64.8-1.8-64.8 24.29 0 36 161.09 51.3 161.09 165.6 0 87.28-88.2 125.99-196.19 125.99h-80.09v-101.71h76.49c49.49 0 78.29 2.71 78.29-24.28 0.01-52.2-160.18-39.59-160.18-172.79z"/>
	</g>
</svg>