<svg width="360" height="90" viewBox="0 0 360 90" fill="none" xmlns="http://www.w3.org/2000/svg">
<g clip-path="url(#clip0_629_6170)">
<mask id="mask0_629_6170" style="mask-type:alpha" maskUnits="userSpaceOnUse" x="-320" y="-155" width="1040" height="692">
<g clip-path="url(#paint0_diamond_629_6170_clip_path)" data-figma-skip-parse="true"><g transform="matrix(0 0.376812 -0.876393 0 200 144.369)"><rect x="0" y="0" width="1043.4" height="593.953" fill="url(#paint0_diamond_629_6170)" opacity="1" shape-rendering="crispEdges"/><rect x="0" y="0" width="1043.4" height="593.953" transform="scale(1 -1)" fill="url(#paint0_diamond_629_6170)" opacity="1" shape-rendering="crispEdges"/><rect x="0" y="0" width="1043.4" height="593.953" transform="scale(-1 1)" fill="url(#paint0_diamond_629_6170)" opacity="1" shape-rendering="crispEdges"/><rect x="0" y="0" width="1043.4" height="593.953" transform="scale(-1)" fill="url(#paint0_diamond_629_6170)" opacity="1" shape-rendering="crispEdges"/></g></g><rect x="-320" y="-155" width="1040" height="692" data-figma-gradient-fill="{&#34;type&#34;:&#34;GRADIENT_DIAMOND&#34;,&#34;stops&#34;:[{&#34;color&#34;:{&#34;r&#34;:1.0,&#34;g&#34;:1.0,&#34;b&#34;:1.0,&#34;a&#34;:1.0},&#34;position&#34;:0.0},{&#34;color&#34;:{&#34;r&#34;:0.85098040103912354,&#34;g&#34;:0.85098040103912354,&#34;b&#34;:0.85098040103912354,&#34;a&#34;:0.0},&#34;position&#34;:1.0}],&#34;stopsVar&#34;:[],&#34;transform&#34;:{&#34;m00&#34;:-4.0530038635140653e-13,&#34;m01&#34;:-1752.7867431640625,&#34;m02&#34;:1076.3933105468750,&#34;m10&#34;:753.62414550781250,&#34;m11&#34;:1.6198652662280377e-12,&#34;m12&#34;:-232.44302368164062},&#34;opacity&#34;:1.0,&#34;blendMode&#34;:&#34;NORMAL&#34;,&#34;visible&#34;:true}"/>
</mask>
<g mask="url(#mask0_629_6170)">
<g opacity="0.7">
<circle cx="13.4037" cy="50.7387" r="0.76211" fill="white" fill-opacity="0.5"/>
<circle cx="70.1676" cy="43.57" r="0.69691" fill="white" fill-opacity="0.5"/>
<circle cx="2.12279" cy="28.8025" r="0.729233" fill="white" fill-opacity="0.4"/>
<circle cx="206.937" cy="78.517" r="0.718168" fill="white" fill-opacity="0.6"/>
<circle cx="36.4665" cy="8.68325" r="0.735984" fill="white" fill-opacity="0.4"/>
<circle cx="78.5622" cy="88.0759" r="0.804401" fill="white" fill-opacity="0.4"/>
<circle cx="354.293" cy="26.9693" r="0.671462" fill="white" fill-opacity="0.6"/>
<circle cx="17.0543" cy="40.1812" r="0.859953" fill="white" fill-opacity="0.6"/>
<circle cx="243.771" cy="57.9314" r="0.85128" fill="white" fill-opacity="0.6"/>
<circle cx="349.077" cy="38.3294" r="0.784446" fill="white" fill-opacity="0.3"/>
<circle cx="286.221" cy="75.5182" r="0.678364" fill="white" fill-opacity="0.4"/>
<circle cx="245.372" cy="84.988" r="0.676482" fill="white" fill-opacity="0.6"/>
<circle cx="161.283" cy="16.291" r="0.648472" fill="white" fill-opacity="0.4"/>
<circle cx="326.601" cy="63.2129" r="0.804688" fill="white" fill-opacity="0.5"/>
<circle cx="156.784" cy="57.3714" r="0.883131" fill="white" fill-opacity="0.5"/>
<circle cx="103.97" cy="57.2431" r="0.754837" fill="white" fill-opacity="0.5"/>
<circle cx="181.562" cy="31.2394" r="0.798039" fill="white" fill-opacity="0.6"/>
<circle cx="39.9858" cy="0.956549" r="0.705573" fill="white" fill-opacity="0.3"/>
<circle cx="97.5514" cy="59.7057" r="0.848304" fill="white" fill-opacity="0.5"/>
<circle cx="289.732" cy="57.7179" r="0.637861" fill="white" fill-opacity="0.5"/>
<circle cx="180.298" cy="64.9042" r="0.719579" fill="white" fill-opacity="0.5"/>
<circle cx="337.084" cy="1.4754" r="0.632627" fill="white" fill-opacity="0.5"/>
<circle cx="58.9966" cy="75.022" r="0.773981" fill="white" fill-opacity="0.3"/>
<circle cx="78.3725" cy="9.15281" r="0.614725" fill="white" fill-opacity="0.3"/>
<circle cx="121.203" cy="76.2521" r="0.820446" fill="white" fill-opacity="0.5"/>
<circle cx="125.121" cy="5.58028" r="0.593954" fill="white" fill-opacity="0.6"/>
</g>
<g opacity="0.6">
<g opacity="0.1">
<g clip-path="url(#clip1_629_6170)">
<path d="M22.6423 -77.1699L20.9104 202" stroke="white" stroke-width="0.654481"/>
<path d="M65.3267 -77.1699L64.5293 191" stroke="white" stroke-width="0.654481"/>
<path d="M108.266 -77.1699L107.213 183" stroke="white" stroke-width="0.654481"/>
<path d="M150.152 -77.1699L151.543 177" stroke="white" stroke-width="0.654481"/>
<path d="M195.33 -77.1699L193.43 177" stroke="white" stroke-width="0.654481"/>
<path d="M238.005 -77.1699L237.217 180" stroke="white" stroke-width="0.654481"/>
<path d="M280.566 -77.1699L279.892 187" stroke="white" stroke-width="0.654481"/>
<path d="M322.453 -77.1699V195.83" stroke="white" stroke-width="0.654481"/>
</g>
<g clip-path="url(#clip2_629_6170)">
<path d="M-314.184 6.60352L934 6.60352" stroke="white" stroke-width="0.654481"/>
<path d="M-314.184 48.4902L934 48.4902" stroke="white" stroke-width="0.654481"/>
</g>
</g>
</g>
</g>
</g>
<defs>
<clipPath id="paint0_diamond_629_6170_clip_path"><rect x="-320" y="-155" width="1040" height="692"/></clipPath><linearGradient id="paint0_diamond_629_6170" x1="0" y1="0" x2="500" y2="500" gradientUnits="userSpaceOnUse">
<stop stop-color="white"/>
<stop offset="1" stop-color="#D9D9D9" stop-opacity="0"/>
</linearGradient>
<clipPath id="clip0_629_6170">
<rect width="360" height="108" fill="white"/>
</clipPath>
<clipPath id="clip1_629_6170">
<rect width="1248.18" height="806.841" fill="white" transform="translate(-314.184 -77.1699)"/>
</clipPath>
<clipPath id="clip2_629_6170">
<rect width="1248.18" height="806.841" fill="white" transform="translate(-314.184 -77.1699)"/>
</clipPath>
</defs>
</svg>
